<?xml version="1.0" encoding="UTF-8"?>
<svg version="1.1" xmlns="http://www.w3.org/2000/svg" width="512" height="512">
<path d="M0 0 C4.57324995 1.96156554 8.76620213 4.46782036 13 7.0625 C14.23290438 7.79574198 15.46714414 8.52674275 16.70263672 9.25561523 C19.2397921 10.75555906 21.77021164 12.2659848 24.29589844 13.78515625 C29.85952373 17.12383816 35.496249 20.33533225 41.125 23.5625 C43.27393088 24.8025308 45.42236849 26.0434168 47.5703125 27.28515625 C54.04510022 31.02651656 60.52236343 34.76357483 67 38.5 C69.1666775 39.74998122 71.33334417 40.99998121 73.5 42.25 C75.10875 43.178125 75.10875 43.178125 76.75 44.125 C88.66666667 51 100.58333333 57.875 112.5 64.75 C113.57354736 65.36931396 114.64709473 65.98862793 115.75317383 66.62670898 C117.90940213 67.87076792 120.06549049 69.11506942 122.22143555 70.35961914 C127.79665505 73.57756786 133.37457082 76.79072373 138.95703125 79.99609375 C145.31403915 83.6480301 151.66166006 87.315762 158 91 C159.15266357 91.66781494 159.15266357 91.66781494 160.32861328 92.34912109 C162.18446062 93.42974666 164.03169335 94.52316256 165.875 95.625 C166.80054688 96.17414063 167.72609375 96.72328125 168.6796875 97.2890625 C171.89975832 99.66345816 174.21039762 102.42079524 176 106 C176.09895889 108.14132551 176.13103134 110.28582337 176.13422108 112.42943192 C176.13657331 113.10022638 176.13892554 113.77102084 176.14134905 114.46214241 C176.14805814 116.73204075 176.14758025 119.0018821 176.14717102 121.27178955 C176.15046846 122.90678614 176.15419377 124.54178192 176.1583125 126.17677665 C176.16835428 130.6871003 176.17205278 135.19741064 176.17470181 139.70774388 C176.17859841 144.56540702 176.18817717 149.42305955 176.19691467 154.28071594 C176.21669716 166.02046317 176.22674748 177.76021129 176.23564246 189.49997103 C176.24002237 195.02410795 176.24538994 200.54824391 176.25063133 206.07238007 C176.26764527 224.42842027 176.28214044 242.78445987 176.28938007 261.14050674 C176.29129007 265.90633393 176.29321039 270.67216111 176.29516602 275.43798828 C176.29564976 276.62255748 176.2961335 277.80712668 176.2966319 279.02759191 C176.30493589 298.22579149 176.3302783 317.42392883 176.36274669 336.62210122 C176.39578667 356.31831091 176.41382605 376.01448894 176.41702431 395.7107265 C176.41919223 406.77517984 176.42798205 417.83954242 176.45348549 428.90396881 C176.47515068 438.32515119 176.48326355 447.74622078 176.47351871 457.16742525 C176.46896187 461.97625339 176.47094031 466.78484862 176.49028015 471.5936451 C176.50782614 475.99431843 176.50698419 480.39458745 176.49138286 484.79526457 C176.4889937 486.38884558 176.49339767 487.98245396 176.50521151 489.57599297 C176.52026475 491.74022351 176.51070563 493.90300922 176.49498463 496.06720352 C176.49596144 497.26983282 176.49693824 498.47246212 176.49794465 499.71153474 C175.76687173 504.53959725 173.55160814 507.47435772 170.1174401 510.85105562 C167.3242358 512.36667648 165.29502818 512.3783436 162.12095833 512.38311005 C160.91143946 512.39216669 159.70192059 512.40122333 158.45574963 512.41055441 C157.11178489 512.40544995 155.76782121 512.40005785 154.42385864 512.39440918 C152.99749676 512.39929674 151.57113883 512.40548592 150.14478767 512.41286707 C146.22040493 512.42930711 142.29622254 512.42694045 138.37181735 512.4214921 C134.14130595 512.41882688 129.91084857 512.43334415 125.68035889 512.44558716 C117.39035046 512.46666509 109.10041193 512.47118065 100.81037988 512.46939927 C94.07329386 512.4680928 87.3362297 512.47188991 80.5991478 512.47932434 C78.66018705 512.48142349 76.7212263 512.48352109 74.78226554 512.48561716 C73.33474963 512.48718245 73.33474963 512.48718245 71.85799097 512.48877937 C53.59754689 512.50769136 35.33714297 512.50662864 17.07669316 512.49981004 C0.36496693 512.4942342 -16.34660602 512.51506005 -33.05829643 512.54817051 C-50.20979348 512.5818891 -67.36121706 512.5970781 -84.51274788 512.59245348 C-94.14525237 512.59020689 -103.77761519 512.59547955 -113.4100914 512.62034607 C-121.6107285 512.6413356 -129.81114626 512.64497463 -138.01179229 512.62604648 C-142.19691101 512.61687395 -146.38162051 512.61579158 -150.56670761 512.63640213 C-154.39749562 512.65505937 -158.22753779 512.65066864 -162.05829693 512.62785631 C-163.44454787 512.62365714 -164.83085541 512.62791486 -166.2170466 512.64145225 C-177.86259073 512.74744155 -177.86259073 512.74744155 -181.73938179 509.71115875 C-185.55644464 505.1333564 -186.25015435 502.31295631 -186.25447559 496.32167912 C-186.25768207 495.64827737 -186.26088855 494.97487562 -186.26419219 494.28106776 C-186.27252372 492.01428343 -186.266557 489.74776116 -186.26069641 487.48097229 C-186.26371566 485.84353601 -186.267604 484.20610114 -186.27228898 482.56866878 C-186.28260692 478.06091027 -186.28037753 473.55323095 -186.27610838 469.04546583 C-186.27364804 464.18717226 -186.28264668 459.3288981 -186.29014587 454.47061157 C-186.30291405 444.94969968 -186.30468394 435.42881596 -186.30234561 425.90789694 C-186.30056471 418.1715704 -186.30230719 410.43525244 -186.30657005 402.69892693 C-186.30716524 401.59909409 -186.30776043 400.49926125 -186.30837366 399.36610014 C-186.30958537 397.13200593 -186.3107995 394.89791172 -186.31201603 392.66381752 C-186.32289967 371.69894994 -186.32072514 350.73409843 -186.31463119 329.76922994 C-186.3094609 310.57695802 -186.32071895 291.38473685 -186.33972941 272.19247497 C-186.35908665 252.49959327 -186.36736755 232.80673561 -186.36360615 213.11384434 C-186.36169094 202.05226945 -186.36421275 190.99073776 -186.37832069 179.92917061 C-186.39020854 170.51277311 -186.39166862 161.0964454 -186.37953053 151.68004698 C-186.37362363 146.87339691 -186.3725922 142.06687464 -186.38453293 137.26023293 C-186.39533032 132.86282702 -186.39236215 128.46565658 -186.37827124 124.06826197 C-186.37560728 122.47476355 -186.3780437 120.88124704 -186.38600711 119.28776629 C-186.39606203 117.12627809 -186.38773597 114.96561652 -186.37473011 112.80416203 C-186.37478513 111.60223715 -186.37484014 110.40031227 -186.37489682 109.16196543 C-185.87941534 104.98296142 -184.3964037 102.33746867 -181.37451172 99.44311523 C-175.53923774 95.20404781 -169.39769268 91.61350752 -163.125 88.0625 C-161.38838923 87.07015099 -159.65178313 86.07779368 -157.91546631 85.08493042 C-156.12456461 84.0616938 -154.3323964 83.04070384 -152.54003906 82.02001953 C-147.01329796 78.86994704 -141.50787331 75.68290397 -136 72.5 C-133.83604619 71.25111373 -131.67198336 70.00241635 -129.5078125 68.75390625 C-128.43563477 68.13531738 -127.36345703 67.51672852 -126.25878906 66.87939453 C-122.98300434 64.99019834 -119.70644107 63.10235891 -116.4296875 61.21484375 C-105.93767906 55.16944841 -95.45518324 49.10889781 -85 43 C-73.47481347 36.26590599 -61.91497499 29.59291051 -50.34814453 22.93066406 C-46.88507299 20.93372883 -43.42465217 18.93226758 -39.96484375 16.9296875 C-38.79738851 16.25443228 -37.62990829 15.57922027 -36.46240234 14.90405273 C-34.27072993 13.63635768 -32.07960678 12.36771231 -29.88916016 11.09790039 C-27.89297538 9.94406136 -25.89243576 8.79771713 -23.88720703 7.65966797 C-21.95770249 6.55052102 -20.0467769 5.40842892 -18.15576172 4.23486328 C-12.07844794 0.59359006 -7.10249506 -1.73234785 0 0 Z M-13.625 32.125 C-14.81730225 32.79281494 -14.81730225 32.79281494 -16.03369141 33.47412109 C-23.54239554 37.70037886 -30.97897441 42.04934727 -38.41308594 46.4050293 C-46.20500751 50.96658564 -54.03117516 55.46600042 -61.875 59.9375 C-74.20049481 66.96560673 -86.49722363 74.04240605 -98.78222656 81.14111328 C-103.10392728 83.63773158 -107.42711932 86.13176025 -111.75048828 88.62548828 C-113.90270123 89.86701277 -116.05472208 91.10887032 -118.20654297 92.35107422 C-123.26408347 95.27039259 -128.32310244 98.18705251 -133.38757324 101.09432983 C-135.76923502 102.46174766 -138.1500302 103.83067039 -140.53076172 105.19970703 C-142.20326021 106.16064553 -143.87700336 107.11941672 -145.55078125 108.078125 C-146.57042969 108.66464844 -147.59007812 109.25117187 -148.640625 109.85546875 C-149.53297852 110.36746826 -150.42533203 110.87946777 -151.34472656 111.40698242 C-152.65908691 112.19552612 -152.65908691 112.19552612 -154 113 C-155.54430677 113.84576989 -155.54430677 113.84576989 -157.11981165 114.70862603 C-160.23131047 116.71332288 -160.23131047 116.71332288 -160.74519098 119.86283278 C-160.74291266 120.98224832 -160.74063433 122.10166385 -160.73828697 123.25500107 C-160.75023326 124.54833823 -160.76217955 125.84167539 -160.77448785 127.17420459 C-160.75736935 128.61270455 -160.73969576 130.05119798 -160.7215271 131.48968506 C-160.72414272 133.01519516 -160.72939467 134.54070265 -160.7370621 136.06619573 C-160.75050666 140.26468284 -160.72644133 144.46225519 -160.69639373 148.6606257 C-160.67053045 153.18547846 -160.67924781 157.71027786 -160.68380737 162.23518372 C-160.68695652 170.07698583 -160.66810018 177.91848887 -160.63438034 185.76021576 C-160.58565877 197.09804312 -160.56999585 208.43572557 -160.56245239 219.77364627 C-160.54931419 238.16770167 -160.50936714 256.56159761 -160.45263672 274.95556641 C-160.39757922 292.82567546 -160.35510052 310.69574124 -160.32958984 328.56591797 C-160.3280135 329.66706844 -160.32643716 330.76821892 -160.32481305 331.90273759 C-160.31698294 337.42677707 -160.30940067 342.95081686 -160.30194163 348.47485685 C-160.23972125 394.31671286 -160.12909992 440.15827398 -160 486 C-135.25 486 -110.5 486 -85 486 C-84.82959277 462.62011652 -84.82959277 462.62011652 -84.70214844 439.23999023 C-84.65673828 434.70129395 -84.65673828 434.70129395 -84.63043213 432.57142639 C-84.61589088 431.09512079 -84.6090494 429.61872634 -84.60845947 428.14234924 C-84.60602685 425.89566276 -84.57857776 423.65047706 -84.54589844 421.40405273 C-84.53257477 419.50876076 -84.53257477 419.50876076 -84.51898193 417.57518005 C-83.86200435 413.049371 -82.6226601 410.74275377 -80 407 C-76.74822224 404.83331091 -74.01492368 404.7488346 -70.16175842 404.74603271 C-68.96867569 404.74039307 -67.77559296 404.73475342 -66.5463562 404.72894287 C-65.24078766 404.73299133 -63.93521912 404.73703979 -62.59008789 404.74121094 C-61.19861162 404.73850029 -59.80713679 404.73493895 -58.41566467 404.73059082 C-54.63879099 404.72147241 -50.86202656 404.72500902 -47.08515096 404.73134899 C-43.13166971 404.73641282 -39.1781978 404.73171638 -35.22471619 404.72857666 C-28.58444541 404.72493771 -21.94421911 404.72973381 -15.30395508 404.73925781 C-7.6297518 404.75013776 0.04434516 404.74661986 7.71854585 404.735605 C14.3088929 404.72652476 20.89920796 404.72525059 27.48955923 404.73048234 C31.42498711 404.73359856 35.36036506 404.73402102 39.29578972 404.72740936 C42.99678705 404.72162597 46.69764757 404.72565094 50.39863014 404.73719788 C52.40269407 404.74109806 54.40676958 404.73516694 56.41082764 404.72894287 C57.60673019 404.73458252 58.80263275 404.74022217 60.03477478 404.74603271 C61.07212737 404.74678677 62.10947996 404.74754082 63.17826748 404.74831772 C66.17270559 405.01540434 68.32372534 405.64356106 71 407 C73.3489377 410.92387118 73.30470815 414.99577318 73.31884766 419.45239258 C73.32900091 420.19640918 73.33915417 420.94042578 73.3496151 421.70698833 C73.3801227 424.10283138 73.39737026 426.49855637 73.4140625 428.89453125 C73.43100718 430.37871308 73.44882495 431.8628852 73.4675293 433.3470459 C73.53059292 438.83541929 73.57678189 444.3239761 73.625 449.8125 C73.74875 462.084375 73.8725 474.35625 74 487 C99.08 487 124.16 487 150 487 C150.37478955 440.03429014 150.68866909 393.06999066 150.8681106 346.10321329 C150.88937257 340.55822679 150.91137605 335.01324348 150.93383789 329.46826172 C150.93829717 328.36435736 150.94275645 327.260453 150.94735085 326.12309699 C151.0213208 308.24941327 151.15535508 290.37665922 151.31159753 272.503527 C151.47058465 254.16343547 151.56500083 235.82383073 151.59950441 217.48307836 C151.62283011 206.16552396 151.69648407 194.85059701 151.83457994 183.53385155 C151.92445855 175.77300636 151.95160025 168.01351884 151.92952342 160.25219102 C151.91863312 155.77331144 151.93528215 151.29901982 152.02649307 146.82095718 C153.17782712 130.01839269 153.17782712 130.01839269 148.34261584 114.62193441 C144.41870462 111.01772033 140.14679146 109.15928783 135.08189952 107.67304492 C131.92484395 106.65241919 129.37570118 105.02408224 126.56640625 103.26953125 C124.56553379 102.11644169 122.56422606 100.96410711 120.5625 99.8125 C118.31379049 98.5169472 116.06509292 97.22137368 113.81640625 95.92578125 C112.68734863 95.27561035 111.55829102 94.62543945 110.39501953 93.95556641 C104.9283002 90.80667946 99.46425113 87.65316736 94 84.5 C91.83334689 83.2499765 89.66668021 81.99997653 87.5 80.75 C48.5 58.25 48.5 58.25 45.24536133 56.37231445 C43.09416776 55.13124746 40.94296345 53.89019907 38.79174805 52.64916992 C33.74037001 49.73501656 28.6890969 46.82068182 23.63821411 43.90567017 C21.84933082 42.87326522 20.06041283 41.84092044 18.27148438 40.80859375 C16.02662364 39.51314052 13.7818281 38.2175743 11.53710938 36.921875 C9.55498363 35.7780992 7.57213093 34.63558177 5.58837891 33.49462891 C3.98204251 32.56706888 2.37939541 31.63304926 0.78271484 30.68896484 C-5.50826779 26.99019756 -7.57310486 28.708209 -13.625 32.125 Z M-59 431 C-59 449.48 -59 467.96 -59 487 C-45.47 487 -31.94 487 -18 487 C-18 468.52 -18 450.04 -18 431 C-31.53 431 -45.06 431 -59 431 Z M8 431 C8 449.48 8 467.96 8 487 C21.53 487 35.06 487 49 487 C49 468.52 49 450.04 49 431 C35.47 431 21.94 431 8 431 Z " fill="#000000" transform="translate(261,0)"/>
<path d="M0 0 C0.82072998 -0.00524185 1.64145996 -0.0104837 2.48706055 -0.0158844 C4.21499505 -0.0222818 5.94297323 -0.02099727 7.67089844 -0.01245117 C10.30482884 -0.00393106 12.93659538 -0.03274824 15.5703125 -0.06445312 C17.25520769 -0.06606521 18.94010669 -0.06548747 20.625 -0.0625 C21.79712036 -0.07935097 21.79712036 -0.07935097 22.99291992 -0.09654236 C29.18054419 -0.01820469 32.56267752 1.91592037 37.16040039 6.12548828 C38.98018795 9.77123348 38.76021913 13.34319463 38.74609375 17.36328125 C38.7513356 18.23123322 38.75657745 19.09918518 38.76197815 19.99343872 C38.76839392 21.82748344 38.7670671 23.66156933 38.75854492 25.49560547 C38.75005012 28.29209324 38.7787765 31.08652726 38.81054688 33.8828125 C38.81215949 35.66796814 38.8115802 37.45312738 38.80859375 39.23828125 C38.82544472 40.48543411 38.82544472 40.48543411 38.84263611 41.75778198 C38.77925154 47.07847942 38.06044973 50.36434774 34.3125 54.43359375 C29.32220525 57.28143271 24.82776176 57.88026346 19.18359375 57.83203125 C18.43086685 57.83490143 17.67813995 57.83777161 16.90260315 57.84072876 C15.32186118 57.84275776 13.74109342 57.83730992 12.16040039 57.82470703 C9.75284345 57.80861276 7.34695911 57.8246058 4.93945312 57.84375 C3.39582966 57.8417678 1.85220723 57.8379246 0.30859375 57.83203125 C-0.40406143 57.83810394 -1.11671661 57.84417664 -1.85096741 57.85043335 C-7.82357922 57.76709025 -11.60879272 56.30250337 -16.03149414 52.32617188 C-18.37240359 48.23725913 -18.24447636 44.78782743 -18.18359375 40.15234375 C-18.18504898 39.26123901 -18.18650421 38.37013428 -18.18800354 37.45202637 C-18.18634748 35.57263918 -18.17481907 33.69323803 -18.15405273 31.81396484 C-18.12509585 28.94309677 -18.13345025 26.0740764 -18.14648438 23.203125 C-18.14024648 21.37368897 -18.13185514 19.54425876 -18.12109375 17.71484375 C-18.12402939 16.8595105 -18.12696503 16.00417725 -18.12998962 15.1229248 C-18.05652667 10.46445757 -17.89047425 7.08639778 -14.6875 3.43359375 C-9.85934837 0.17396737 -5.62249254 -0.02112275 0 0 Z " fill="#000000" transform="translate(336.6875,320.56640625)"/>
<path d="M0 0 C0.82072998 -0.00524185 1.64145996 -0.0104837 2.48706055 -0.0158844 C4.21499505 -0.0222818 5.94297323 -0.02099727 7.67089844 -0.01245117 C10.30482884 -0.00393106 12.93659538 -0.03274824 15.5703125 -0.06445312 C17.25520769 -0.06606521 18.94010669 -0.06548747 20.625 -0.0625 C21.79712036 -0.07935097 21.79712036 -0.07935097 22.99291992 -0.09654236 C28.19949404 -0.03062516 31.23692692 0.91750896 35.3125 4.43359375 C38.91726432 8.72416341 38.76553087 12.88937758 38.74609375 18.2421875 C38.7513356 19.08652847 38.75657745 19.93086945 38.76197815 20.80079651 C38.76838499 22.58178613 38.76707869 24.36281813 38.75854492 26.14379883 C38.75003787 28.85900739 38.77880831 31.57210857 38.81054688 34.28710938 C38.81215923 36.02213479 38.8115807 37.75716391 38.80859375 39.4921875 C38.82544472 40.70182411 38.82544472 40.70182411 38.84263611 41.93589783 C38.77813691 47.19031509 37.99706365 50.40887053 34.3125 54.43359375 C29.32220525 57.28143271 24.82776176 57.88026346 19.18359375 57.83203125 C18.43086685 57.83490143 17.67813995 57.83777161 16.90260315 57.84072876 C15.32186118 57.84275776 13.74109342 57.83730992 12.16040039 57.82470703 C9.75284345 57.80861276 7.34695911 57.8246058 4.93945312 57.84375 C3.39582966 57.8417678 1.85220723 57.8379246 0.30859375 57.83203125 C-0.40406143 57.83810394 -1.11671661 57.84417664 -1.85096741 57.85043335 C-7.82357922 57.76709025 -11.60879272 56.30250337 -16.03149414 52.32617188 C-18.37240359 48.23725913 -18.24447636 44.78782743 -18.18359375 40.15234375 C-18.18504898 39.26123901 -18.18650421 38.37013428 -18.18800354 37.45202637 C-18.18634748 35.57263918 -18.17481907 33.69323803 -18.15405273 31.81396484 C-18.12509585 28.94309677 -18.13345025 26.0740764 -18.14648438 23.203125 C-18.14024648 21.37368897 -18.13185514 19.54425876 -18.12109375 17.71484375 C-18.12402939 16.8595105 -18.12696503 16.00417725 -18.12998962 15.1229248 C-18.05652667 10.46445757 -17.89047425 7.08639778 -14.6875 3.43359375 C-9.85934837 0.17396737 -5.62249254 -0.02112275 0 0 Z " fill="#000000" transform="translate(154.6875,320.56640625)"/>
<path d="M0 0 C0.82072998 -0.00524185 1.64145996 -0.0104837 2.48706055 -0.0158844 C4.21499505 -0.0222818 5.94297323 -0.02099727 7.67089844 -0.01245117 C10.30482884 -0.00393106 12.93659538 -0.03274824 15.5703125 -0.06445312 C17.25520769 -0.06606521 18.94010669 -0.06548747 20.625 -0.0625 C21.79712036 -0.07935097 21.79712036 -0.07935097 22.99291992 -0.09654236 C28.19949404 -0.03062516 31.23692692 0.91750896 35.3125 4.43359375 C38.91726432 8.72416341 38.76553087 12.88937758 38.74609375 18.2421875 C38.7513356 19.08652847 38.75657745 19.93086945 38.76197815 20.80079651 C38.76838499 22.58178613 38.76707869 24.36281813 38.75854492 26.14379883 C38.75003787 28.85900739 38.77880831 31.57210857 38.81054688 34.28710938 C38.81215923 36.02213479 38.8115807 37.75716391 38.80859375 39.4921875 C38.82544472 40.70182411 38.82544472 40.70182411 38.84263611 41.93589783 C38.77813691 47.19031509 37.99706365 50.40887053 34.3125 54.43359375 C29.32220525 57.28143271 24.82776176 57.88026346 19.18359375 57.83203125 C18.43086685 57.83490143 17.67813995 57.83777161 16.90260315 57.84072876 C15.32186118 57.84275776 13.74109342 57.83730992 12.16040039 57.82470703 C9.75284345 57.80861276 7.34695911 57.8246058 4.93945312 57.84375 C3.39582966 57.8417678 1.85220723 57.8379246 0.30859375 57.83203125 C-0.40406143 57.83810394 -1.11671661 57.84417664 -1.85096741 57.85043335 C-7.82357922 57.76709025 -11.60879272 56.30250337 -16.03149414 52.32617188 C-18.37240359 48.23725913 -18.24447636 44.78782743 -18.18359375 40.15234375 C-18.18504898 39.26123901 -18.18650421 38.37013428 -18.18800354 37.45202637 C-18.18634748 35.57263918 -18.17481907 33.69323803 -18.15405273 31.81396484 C-18.12509585 28.94309677 -18.13345025 26.0740764 -18.14648438 23.203125 C-18.14024648 21.37368897 -18.13185514 19.54425876 -18.12109375 17.71484375 C-18.12402939 16.8595105 -18.12696503 16.00417725 -18.12998962 15.1229248 C-18.05652667 10.46445757 -17.89047425 7.08639778 -14.6875 3.43359375 C-9.85934837 0.17396737 -5.62249254 -0.02112275 0 0 Z " fill="#000000" transform="translate(245.6875,320.56640625)"/>
<path d="M0 0 C0.87173859 -0.00428513 1.74347717 -0.00857025 2.64163208 -0.01298523 C4.48585136 -0.01872786 6.33009329 -0.01922928 8.17431641 -0.01489258 C10.99030446 -0.01173836 13.80523605 -0.03517213 16.62109375 -0.06054688 C18.41406118 -0.06282051 20.20703142 -0.06352307 22 -0.0625 C22.83973358 -0.07170975 23.67946716 -0.08091949 24.54464722 -0.09040833 C29.20470524 -0.05370164 32.42729338 0.16754472 36.1328125 3.30078125 C39.79827649 7.65007805 39.57073991 11.94340567 39.53125 17.36328125 C39.53412018 18.23218994 39.53699036 19.10109863 39.53994751 19.99633789 C39.54198384 21.82861993 39.53648419 23.66092393 39.52392578 25.49316406 C39.5078657 28.29151194 39.52378882 31.08841559 39.54296875 33.88671875 C39.54098624 35.67057609 39.53714241 37.45443254 39.53125 39.23828125 C39.54035904 40.48847046 39.54035904 40.48847046 39.5496521 41.76391602 C39.49372299 46.40263727 39.24354587 49.6097062 36.1328125 53.30078125 C31.75375904 57.01069992 27.31977679 56.75314277 21.8515625 56.734375 C20.96045776 56.73961685 20.06935303 56.7448587 19.15124512 56.7502594 C17.27190185 56.75666747 15.39251842 56.75535836 13.51318359 56.74682617 C10.64217634 56.73830903 7.77315499 56.7671051 4.90234375 56.79882812 C3.07291726 56.80044016 1.24348726 56.79986257 -0.5859375 56.796875 C-1.86893738 56.81372597 -1.86893738 56.81372597 -3.17785645 56.83091736 C-7.20547922 56.78394322 -9.33461461 56.63302331 -12.82226562 54.45727539 C-15.74633596 51.37366588 -17.11175129 49.39379673 -17.17358398 45.18408203 C-17.18957138 44.3595755 -17.20555878 43.53506897 -17.22203064 42.68557739 C-17.22739334 41.79804779 -17.23275604 40.91051819 -17.23828125 39.99609375 C-17.24730972 39.07996307 -17.2563382 38.1638324 -17.26564026 37.21994019 C-17.28014835 35.28158845 -17.28903088 33.34318767 -17.29272461 31.40478516 C-17.30461637 28.44349355 -17.35379142 25.48428894 -17.40429688 22.5234375 C-17.41376177 20.63933308 -17.42099649 18.75521587 -17.42578125 16.87109375 C-17.44531357 15.98761261 -17.46484589 15.10413147 -17.48497009 14.19387817 C-17.45257554 9.76562117 -17.3451809 7.90618984 -14.51977539 4.32763672 C-9.46027906 0.46165066 -6.22013307 -0.00671865 0 0 Z " fill="#000000" transform="translate(244.8671875,228.69921875)"/>
<path d="M0 0 C0.87173859 -0.00428513 1.74347717 -0.00857025 2.64163208 -0.01298523 C4.48585136 -0.01872786 6.33009329 -0.01922928 8.17431641 -0.01489258 C10.99030446 -0.01173836 13.80523605 -0.03517213 16.62109375 -0.06054688 C18.41406118 -0.06282051 20.20703142 -0.06352307 22 -0.0625 C22.83973358 -0.07170975 23.67946716 -0.08091949 24.54464722 -0.09040833 C29.20470524 -0.05370164 32.42729338 0.16754472 36.1328125 3.30078125 C39.79827649 7.65007805 39.57073991 11.94340567 39.53125 17.36328125 C39.53412018 18.23218994 39.53699036 19.10109863 39.53994751 19.99633789 C39.54198384 21.82861993 39.53648419 23.66092393 39.52392578 25.49316406 C39.5078657 28.29151194 39.52378882 31.08841559 39.54296875 33.88671875 C39.54098624 35.67057609 39.53714241 37.45443254 39.53125 39.23828125 C39.54035904 40.48847046 39.54035904 40.48847046 39.5496521 41.76391602 C39.49372299 46.40263727 39.24354587 49.6097062 36.1328125 53.30078125 C31.75375904 57.01069992 27.31977679 56.75314277 21.8515625 56.734375 C20.96045776 56.73961685 20.06935303 56.7448587 19.15124512 56.7502594 C17.27190185 56.75666747 15.39251842 56.75535836 13.51318359 56.74682617 C10.64217634 56.73830903 7.77315499 56.7671051 4.90234375 56.79882812 C3.07291726 56.80044016 1.24348726 56.79986257 -0.5859375 56.796875 C-1.86893738 56.81372597 -1.86893738 56.81372597 -3.17785645 56.83091736 C-7.20547922 56.78394322 -9.33461461 56.63302331 -12.82226562 54.45727539 C-15.74633596 51.37366588 -17.11175129 49.39379673 -17.17358398 45.18408203 C-17.18957138 44.3595755 -17.20555878 43.53506897 -17.22203064 42.68557739 C-17.22739334 41.79804779 -17.23275604 40.91051819 -17.23828125 39.99609375 C-17.24730972 39.07996307 -17.2563382 38.1638324 -17.26564026 37.21994019 C-17.28014835 35.28158845 -17.28903088 33.34318767 -17.29272461 31.40478516 C-17.30461637 28.44349355 -17.35379142 25.48428894 -17.40429688 22.5234375 C-17.41376177 20.63933308 -17.42099649 18.75521587 -17.42578125 16.87109375 C-17.44531357 15.98761261 -17.46484589 15.10413147 -17.48497009 14.19387817 C-17.45257554 9.76562117 -17.3451809 7.90618984 -14.51977539 4.32763672 C-9.46027906 0.46165066 -6.22013307 -0.00671865 0 0 Z " fill="#000000" transform="translate(153.8671875,228.69921875)"/>
<path d="M0 0 C1.30336304 -0.00430527 1.30336304 -0.00430527 2.63305664 -0.00869751 C4.46533868 -0.01073384 6.29764268 -0.00523419 8.12988281 0.00732422 C10.92823069 0.0233843 13.72513434 0.00746118 16.5234375 -0.01171875 C18.30729484 -0.00973624 20.09115129 -0.00589241 21.875 0 C22.70845947 -0.00607269 23.54191895 -0.01214539 24.40063477 -0.0184021 C29.03935602 0.03752701 32.24642495 0.28770413 35.9375 3.3984375 C39.60296399 7.7477343 39.37542741 12.04106192 39.3359375 17.4609375 C39.33880768 18.32984619 39.34167786 19.19875488 39.34463501 20.09399414 C39.34667134 21.92627618 39.34117169 23.75858018 39.32861328 25.59082031 C39.3125532 28.38916819 39.32847632 31.18607184 39.34765625 33.984375 C39.34567374 35.76823234 39.34182991 37.55208879 39.3359375 39.3359375 C39.34504654 40.58612671 39.34504654 40.58612671 39.3543396 41.86157227 C39.29841049 46.50029352 39.04823337 49.70736245 35.9375 53.3984375 C31.55844654 57.10835617 27.12446429 56.85079902 21.65625 56.83203125 C20.76514526 56.8372731 19.87404053 56.84251495 18.95593262 56.84791565 C17.07658935 56.85432372 15.19720592 56.85301461 13.31787109 56.84448242 C10.44686384 56.83596528 7.57784249 56.86476135 4.70703125 56.89648438 C2.87760476 56.89809641 1.04817476 56.89751882 -0.78125 56.89453125 C-2.06424988 56.91138222 -2.06424988 56.91138222 -3.37316895 56.92857361 C-7.40079172 56.88159947 -9.52992711 56.73067956 -13.01757812 54.55493164 C-15.90935705 51.50537538 -17.30996432 49.5441549 -17.3371582 45.37353516 C-17.34669022 44.56904938 -17.35622223 43.7645636 -17.36604309 42.93569946 C-17.36467598 41.63721573 -17.36467598 41.63721573 -17.36328125 40.3125 C-17.36756638 39.41856537 -17.3718515 38.52463074 -17.37626648 37.60360718 C-17.38200956 35.71230923 -17.3825102 33.82098919 -17.37817383 31.9296875 C-17.37501949 29.04128104 -17.39845344 26.15390439 -17.42382812 23.265625 C-17.42610174 21.42708462 -17.42680433 19.5885415 -17.42578125 17.75 C-17.434991 16.88839264 -17.44420074 16.02678528 -17.45368958 15.1390686 C-17.41753425 10.43279651 -17.24129189 7.13355049 -14.0625 3.3984375 C-9.7132032 -0.26702649 -5.41987558 -0.03948991 0 0 Z " fill="#000000" transform="translate(336.0625,228.6015625)"/>
<path d="M0 0 C0.82072998 -0.00524185 1.64145996 -0.0104837 2.48706055 -0.0158844 C4.21499505 -0.0222818 5.94297323 -0.02099727 7.67089844 -0.01245117 C10.30482884 -0.00393106 12.93659538 -0.03274824 15.5703125 -0.06445312 C17.25520769 -0.06606521 18.94010669 -0.06548747 20.625 -0.0625 C21.79712036 -0.07935097 21.79712036 -0.07935097 22.99291992 -0.09654236 C29.1820139 -0.01818609 32.55963298 1.91939572 37.16259766 6.12329102 C38.98345821 9.78163569 38.74012442 13.36781108 38.7109375 17.3984375 C38.71380768 18.26876114 38.71667786 19.13908478 38.71963501 20.03578186 C38.72167387 21.87404024 38.71615644 23.7123204 38.70361328 25.55053711 C38.6875762 28.35775546 38.7034577 31.16352987 38.72265625 33.97070312 C38.72067341 35.75911775 38.71682888 37.54753148 38.7109375 39.3359375 C38.72004654 40.59083229 38.72004654 40.59083229 38.7293396 41.87107849 C38.6737918 46.49713347 38.48481517 49.8003761 35.3125 53.43359375 C30.4195464 56.76100215 26.07649823 56.87499519 20.37109375 56.83203125 C19.52579605 56.83490143 18.68049835 56.83777161 17.80958557 56.84072876 C16.03035814 56.84276217 14.25110798 56.83728305 12.47192383 56.82470703 C9.75486165 56.80862253 7.03928232 56.82459013 4.32226562 56.84375 C2.5885384 56.84176783 0.85481209 56.8379247 -0.87890625 56.83203125 C-2.09157921 56.84114029 -2.09157921 56.84114029 -3.32875061 56.85043335 C-7.91127821 56.79349398 -11.03323882 56.49043145 -14.6875 53.43359375 C-18.35296399 49.08429695 -18.12542741 44.79096933 -18.0859375 39.37109375 C-18.09024277 38.06773071 -18.09024277 38.06773071 -18.09463501 36.73803711 C-18.09667134 34.90575507 -18.09117169 33.07345107 -18.07861328 31.24121094 C-18.0625532 28.44286306 -18.07847632 25.64595941 -18.09765625 22.84765625 C-18.09567374 21.06379891 -18.09182991 19.27994246 -18.0859375 17.49609375 C-18.09201019 16.66263428 -18.09808289 15.8291748 -18.1043396 14.97045898 C-18.04865664 10.35215315 -17.85222807 7.06188056 -14.6875 3.43359375 C-9.85934837 0.17396737 -5.62249254 -0.02112275 0 0 Z " fill="#000000" transform="translate(336.6875,136.56640625)"/>
<path d="M0 0 C0.82072998 -0.00524185 1.64145996 -0.0104837 2.48706055 -0.0158844 C4.21499505 -0.0222818 5.94297323 -0.02099727 7.67089844 -0.01245117 C10.30482884 -0.00393106 12.93659538 -0.03274824 15.5703125 -0.06445312 C17.25520769 -0.06606521 18.94010669 -0.06548747 20.625 -0.0625 C21.79712036 -0.07935097 21.79712036 -0.07935097 22.99291992 -0.09654236 C28.19949404 -0.03062516 31.23692692 0.91750896 35.3125 4.43359375 C38.93419336 8.73489228 38.7510947 12.91053096 38.7109375 18.27734375 C38.71380768 19.1240564 38.71667786 19.97076904 38.71963501 20.84313965 C38.72167104 22.62834342 38.7161735 24.41356973 38.70361328 26.19873047 C38.68755262 28.92466313 38.70347718 31.64911322 38.72265625 34.375 C38.72067374 36.11328451 38.71682989 37.8515681 38.7109375 39.58984375 C38.72004654 40.80722229 38.72004654 40.80722229 38.7293396 42.04919434 C38.67277576 46.62080515 38.4312663 49.83495393 35.3125 53.43359375 C30.4195464 56.76100215 26.07649823 56.87499519 20.37109375 56.83203125 C19.52579605 56.83490143 18.68049835 56.83777161 17.80958557 56.84072876 C16.03035814 56.84276217 14.25110798 56.83728305 12.47192383 56.82470703 C9.75486165 56.80862253 7.03928232 56.82459013 4.32226562 56.84375 C2.5885384 56.84176783 0.85481209 56.8379247 -0.87890625 56.83203125 C-2.09157921 56.84114029 -2.09157921 56.84114029 -3.32875061 56.85043335 C-7.91127821 56.79349398 -11.03323882 56.49043145 -14.6875 53.43359375 C-18.35296399 49.08429695 -18.12542741 44.79096933 -18.0859375 39.37109375 C-18.09024277 38.06773071 -18.09024277 38.06773071 -18.09463501 36.73803711 C-18.09667134 34.90575507 -18.09117169 33.07345107 -18.07861328 31.24121094 C-18.0625532 28.44286306 -18.07847632 25.64595941 -18.09765625 22.84765625 C-18.09567374 21.06379891 -18.09182991 19.27994246 -18.0859375 17.49609375 C-18.09201019 16.66263428 -18.09808289 15.8291748 -18.1043396 14.97045898 C-18.04865664 10.35215315 -17.85222807 7.06188056 -14.6875 3.43359375 C-9.85934837 0.17396737 -5.62249254 -0.02112275 0 0 Z " fill="#000000" transform="translate(245.6875,136.56640625)"/>
<path d="M0 0 C0.82072998 -0.00524185 1.64145996 -0.0104837 2.48706055 -0.0158844 C4.21499505 -0.0222818 5.94297323 -0.02099727 7.67089844 -0.01245117 C10.30482884 -0.00393106 12.93659538 -0.03274824 15.5703125 -0.06445312 C17.25520769 -0.06606521 18.94010669 -0.06548747 20.625 -0.0625 C21.79712036 -0.07935097 21.79712036 -0.07935097 22.99291992 -0.09654236 C28.19949404 -0.03062516 31.23692692 0.91750896 35.3125 4.43359375 C38.81190421 8.6155157 38.7511804 12.82528201 38.7109375 18.05859375 C38.71380768 18.88311035 38.71667786 19.70762695 38.71963501 20.55712891 C38.72167072 22.29525441 38.7161754 24.03340308 38.70361328 25.77148438 C38.687552 28.42500254 38.70347809 31.0769977 38.72265625 33.73046875 C38.72067373 35.42318043 38.71682987 37.11589117 38.7109375 38.80859375 C38.72004654 39.99316162 38.72004654 39.99316162 38.7293396 41.20166016 C38.65773018 46.83767973 37.42220681 49.97226914 33.8125 54.18359375 C30.06920431 57.30300683 25.2612208 56.61294802 20.6640625 56.63671875 C19.81451996 56.64241882 18.96497742 56.6481189 18.08969116 56.6539917 C16.29255415 56.6634348 14.49539987 56.66997294 12.69824219 56.67382812 C9.95476963 56.68353266 7.21204673 56.7145616 4.46875 56.74609375 C2.72135861 56.75262426 0.97396187 56.75787454 -0.7734375 56.76171875 C-1.5912973 56.77406555 -2.4091571 56.78641235 -3.25180054 56.7991333 C-7.86997468 56.78115131 -11.00859103 56.52816077 -14.6875 53.43359375 C-18.35296399 49.08429695 -18.12542741 44.79096933 -18.0859375 39.37109375 C-18.09024277 38.06773071 -18.09024277 38.06773071 -18.09463501 36.73803711 C-18.09667134 34.90575507 -18.09117169 33.07345107 -18.07861328 31.24121094 C-18.0625532 28.44286306 -18.07847632 25.64595941 -18.09765625 22.84765625 C-18.09567374 21.06379891 -18.09182991 19.27994246 -18.0859375 17.49609375 C-18.09201019 16.66263428 -18.09808289 15.8291748 -18.1043396 14.97045898 C-18.04865664 10.35215315 -17.85222807 7.06188056 -14.6875 3.43359375 C-9.85934837 0.17396737 -5.62249254 -0.02112275 0 0 Z " fill="#000000" transform="translate(154.6875,136.56640625)"/>
</svg>
